<?xml version="1.0" encoding="UTF-8" standalone="no"?>
<!DOCTYPE svg PUBLIC "-//W3C//DTD SVG 1.1//EN" "http://www.w3.org/Graphics/SVG/1.1/DTD/svg11.dtd">
<svg width="100%" height="100%" viewBox="0 0 228 239" version="1.1" xmlns="http://www.w3.org/2000/svg" xmlns:xlink="http://www.w3.org/1999/xlink" xml:space="preserve" xmlns:serif="http://www.serif.com/" style="fill-rule:evenodd;clip-rule:evenodd;stroke-linejoin:round;stroke-miterlimit:2;">
    <g transform="matrix(5.55556,0,0,5.55556,0,0)">
        <path d="M36.734,32C33.396,36.833 27.818,40 21.5,40C11.283,40 3,31.717 3,21.5C3,11.283 11.283,3 21.5,3C28.244,3 34.145,6.609 37.378,12L40.793,12C37.285,4.891 29.964,0 21.5,0C9.626,0 0,9.626 0,21.5C0,33.374 9.626,43 21.5,43C29.561,43 36.586,38.564 40.266,32L36.734,32Z" style="fill:url(#_Linear1);"/>
    </g>
    <defs>
        <linearGradient id="_Linear1" x1="0" y1="0" x2="1" y2="0" gradientUnits="userSpaceOnUse" gradientTransform="matrix(40.7733,42.6665,-42.6665,40.7733,0.0708963,0.088436)"><stop offset="0" style="stop-color:rgb(242,94,19);stop-opacity:1"/><stop offset="1" style="stop-color:rgb(146,12,242);stop-opacity:1"/></linearGradient>
    </defs>
</svg>
