<?xml version="1.0" encoding="UTF-8" standalone="no"?>
<!DOCTYPE svg PUBLIC "-//W3C//DTD SVG 1.1//EN" "http://www.w3.org/Graphics/SVG/1.1/DTD/svg11.dtd">
<svg width="100%" height="100%" viewBox="0 0 27138 8146" version="1.1" xmlns="http://www.w3.org/2000/svg" xmlns:xlink="http://www.w3.org/1999/xlink" xml:space="preserve" xmlns:serif="http://www.serif.com/" style="fill-rule:evenodd;clip-rule:evenodd;stroke-linejoin:round;stroke-miterlimit:2;">
    <g transform="matrix(1,0,0,1,7883.5,6386.12)">
        <path d="M302.083,-2701.39L798.611,-2701.39C1092.59,-2701.39 1284.72,-2689.81 1375,-2666.66C1465.28,-2643.52 1548.03,-2603.01 1623.26,-2545.14C1698.49,-2487.27 1756.94,-2414.93 1798.61,-2328.12C1840.28,-2241.32 1861.11,-2144.68 1861.11,-2038.19C1861.11,-1866.9 1814.81,-1726.85 1722.22,-1618.06C1629.63,-1509.26 1513.31,-1440.39 1373.26,-1411.46C1233.22,-1382.52 1018.52,-1368.06 729.166,-1368.06L552.083,-1368.06L552.083,-208.333L302.083,-208.333L302.083,-2701.39ZM552.083,-2458.33L552.083,-1607.64L972.222,-1607.64C1224.54,-1603.01 1392.36,-1644.1 1475.69,-1730.9C1559.03,-1817.71 1600.69,-1920.14 1600.69,-2038.19C1600.69,-2318.29 1398.15,-2458.33 993.055,-2458.33L552.083,-2458.33Z" style="fill:rgb(202,208,217);fill-rule:nonzero;stroke:rgb(202,208,217);stroke-width:17.38px;"/>
        <path d="M3378.47,-2802.08L4541.66,-208.333L4274.3,-208.333L3881.94,-1059.03L2805.55,-1059.03L2416.66,-208.333L2138.89,-208.333L3315.97,-2802.08L3378.47,-2802.08ZM3347.22,-2250L2920.14,-1312.5L3770.83,-1312.5L3347.22,-2250Z" style="fill:rgb(202,208,217);fill-rule:nonzero;stroke:rgb(202,208,217);stroke-width:17.38px;"/>
        <path d="M4940.97,-2701.39L5437.5,-2701.39C5715.27,-2701.39 5905.09,-2689.23 6006.94,-2664.93C6108.79,-2640.62 6196.18,-2600.69 6269.09,-2545.14C6342.01,-2489.58 6399.3,-2417.82 6440.97,-2329.86C6482.64,-2241.9 6503.47,-2144.68 6503.47,-2038.19C6503.47,-1825.23 6428.24,-1657.99 6277.77,-1536.46C6127.31,-1414.93 5914.35,-1358.8 5638.89,-1368.06L6538.19,-208.333L6229.16,-208.333L5333.33,-1368.06L5190.97,-1368.06L5190.97,-208.333L4940.97,-208.333L4940.97,-2701.39ZM5190.97,-2458.33L5190.97,-1611.11L5621.52,-1611.11C5834.49,-1608.8 5991.32,-1641.78 6092.01,-1710.07C6192.7,-1778.36 6243.05,-1886.57 6243.05,-2034.72C6243.05,-2182.87 6193.28,-2290.51 6093.75,-2357.64C5994.21,-2424.77 5840.27,-2458.33 5631.94,-2458.33L5190.97,-2458.33Z" style="fill:rgb(202,208,217);fill-rule:nonzero;stroke:rgb(202,208,217);stroke-width:17.38px;"/>
        <path d="M8055.55,-2802.08L9218.74,-208.333L8951.38,-208.333L8559.02,-1059.03L7482.63,-1059.03L7093.74,-208.333L6815.97,-208.333L7993.05,-2802.08L8055.55,-2802.08ZM8024.3,-2250L7597.22,-1312.5L8447.91,-1312.5L8024.3,-2250Z" style="fill:rgb(202,208,217);fill-rule:nonzero;stroke:rgb(202,208,217);stroke-width:17.38px;"/>
        <path d="M9357.63,-2458.33L9357.63,-2701.39L10725.7,-2701.39L10725.7,-2458.33L10170.1,-2458.33L10170.1,-208.333L9916.66,-208.333L9916.66,-2458.33L9357.63,-2458.33Z" style="fill:rgb(202,208,217);fill-rule:nonzero;stroke:rgb(202,208,217);stroke-width:17.38px;"/>
        <path d="M10975.7,-1444.44C10975.7,-1685.18 11033.6,-1907.41 11149.3,-2111.11C11265,-2314.81 11423.6,-2474.53 11625,-2590.28C11826.4,-2706.02 12045.7,-2763.89 12283,-2763.89C12520.2,-2763.89 12741.3,-2706.6 12946.2,-2592.01C13151,-2477.43 13311.9,-2318.86 13428.8,-2116.32C13545.7,-1913.77 13604.2,-1693.87 13604.2,-1456.6C13604.2,-1219.33 13546.3,-999.421 13430.5,-796.874C13314.8,-594.328 13155.7,-435.185 12953.1,-319.444C12750.6,-203.704 12530.7,-145.833 12293.4,-145.833C12056.1,-145.833 11835.6,-203.125 11631.9,-317.708C11428.2,-432.291 11267.9,-590.277 11151,-791.666C11034.1,-993.055 10975.7,-1210.65 10975.7,-1444.44ZM13343.7,-1454.86C13343.7,-1753.47 13240.2,-2005.79 13033,-2211.8C12825.8,-2417.82 12576.4,-2520.83 12284.7,-2520.83C11986.1,-2520.83 11736.7,-2417.24 11536.5,-2210.07C11336.2,-2002.89 11236.1,-1750.58 11236.1,-1453.12C11236.1,-1155.67 11339.1,-903.935 11545.1,-697.916C11751.1,-491.898 12000,-388.889 12291.7,-388.889C12583.3,-388.889 12831.6,-489.583 13036.5,-690.972C13241.3,-892.361 13343.7,-1146.99 13343.7,-1454.86Z" style="fill:rgb(202,208,217);fill-rule:nonzero;stroke:rgb(202,208,217);stroke-width:17.38px;"/>
        <path d="M14114.6,-2701.39L14611.1,-2701.39C14888.9,-2701.39 15078.7,-2689.23 15180.5,-2664.93C15282.4,-2640.62 15369.8,-2600.69 15442.7,-2545.14C15515.6,-2489.58 15572.9,-2417.82 15614.6,-2329.86C15656.2,-2241.9 15677.1,-2144.68 15677.1,-2038.19C15677.1,-1825.23 15601.8,-1657.99 15451.4,-1536.46C15300.9,-1414.93 15088,-1358.8 14812.5,-1368.06L15711.8,-208.333L15402.8,-208.333L14506.9,-1368.06L14364.6,-1368.06L14364.6,-208.333L14114.6,-208.333L14114.6,-2701.39ZM14364.6,-2458.33L14364.6,-1611.11L14795.1,-1611.11C15008.1,-1608.8 15164.9,-1641.78 15265.6,-1710.07C15366.3,-1778.36 15416.7,-1886.57 15416.7,-2034.72C15416.7,-2182.87 15366.9,-2290.51 15267.4,-2357.64C15167.8,-2424.77 15013.9,-2458.33 14805.5,-2458.33L14364.6,-2458.33Z" style="fill:rgb(202,208,217);fill-rule:nonzero;stroke:rgb(202,208,217);stroke-width:17.38px;"/>
        <path d="M16211.8,-2701.39L17642.4,-2701.39L17642.4,-2454.86L16461.8,-2454.86L16461.8,-1677.08L17631.9,-1677.08L17631.9,-1434.03L16461.8,-1434.03L16461.8,-454.861L17631.9,-454.861L17631.9,-208.333L16211.8,-208.333L16211.8,-2701.39Z" style="fill:rgb(202,208,217);fill-rule:nonzero;stroke:rgb(202,208,217);stroke-width:17.38px;"/>
    </g>
    <rect x="2985.12" y="3422.29" width="2015.95" height="3178.94" style="fill:url(#_Linear1);stroke:white;stroke-width:16.5px;stroke-linecap:square;stroke-miterlimit:1.5;"/>
    <path d="M1419.98,6556.33L2401.96,6556.47L2406.2,5125.44L5538.35,3639.57L5540.55,2344.26L4061.02,2342.71L4063.82,6103.06L6976.22,6106.1L6977.32,4854.98L5542.36,3954.54L5543.18,6554.51L8363.25,6556.28" style="fill:none;stroke:rgb(202,208,217);stroke-width:145.83px;stroke-linecap:square;stroke-miterlimit:1.5;"/>
    <g transform="matrix(1,0,0,1,8165.08,3006.7)">
        <path d="M22.569,-336.805L128.472,-399.305C202.546,-262.731 288.773,-194.444 387.153,-194.444C450.81,-194.444 505.208,-214.699 550.347,-255.208C595.486,-295.717 618.055,-346.065 618.055,-406.25C618.055,-453.703 598.958,-501.736 560.764,-550.347C522.569,-598.958 459.201,-656.539 370.659,-723.09C282.118,-789.641 222.511,-839.409 191.84,-872.395C161.169,-905.381 138.599,-940.682 124.132,-978.298C109.664,-1015.91 102.43,-1053.82 102.43,-1092.01C102.43,-1173.03 131.076,-1241.61 188.368,-1297.74C245.66,-1353.88 317.708,-1381.94 404.514,-1381.94C472.801,-1381.94 532.407,-1364.87 583.333,-1330.73C634.259,-1296.59 683.449,-1245.95 730.902,-1178.82L630.208,-1100.69C597.801,-1144.67 564.236,-1181.13 529.514,-1210.07C494.791,-1239 452.257,-1253.47 401.909,-1253.47C351.562,-1253.47 310.474,-1238.42 278.646,-1208.33C246.817,-1178.24 230.903,-1140.05 230.903,-1093.75C230.903,-1047.45 245.081,-1007.23 273.437,-973.09C301.794,-938.946 366.03,-884.837 466.146,-810.763C566.261,-736.689 639.178,-668.402 684.895,-605.902C730.613,-543.402 753.472,-477.43 753.472,-407.986C753.472,-317.708 718.46,-239.294 648.437,-172.743C578.414,-106.192 497.106,-72.917 404.514,-72.917C241.319,-72.917 114.005,-160.88 22.569,-336.805Z" style="fill:rgb(202,208,217);fill-rule:nonzero;"/>
        <path d="M1526.04,-1401.04L2107.64,-104.167L1973.96,-104.167L1777.78,-529.514L1239.58,-529.514L1045.14,-104.167L906.249,-104.167L1494.79,-1401.04L1526.04,-1401.04ZM1510.42,-1125L1296.87,-656.25L1722.22,-656.25L1510.42,-1125Z" style="fill:rgb(202,208,217);fill-rule:nonzero;"/>
        <path d="M2244.79,-104.167L2421.87,-1350.69L2440.97,-1350.69L2947.91,-328.125L3451.39,-1350.69L3470.48,-1350.69L3649.3,-104.167L3526.04,-104.167L3404.51,-996.527L2963.54,-104.167L2932.29,-104.167L2486.11,-1003.47L2364.58,-104.167L2244.79,-104.167Z" style="fill:rgb(202,208,217);fill-rule:nonzero;"/>
        <path d="M3901.04,-1350.69L4026.04,-1350.69L4026.04,-598.958C4026.04,-521.412 4028.07,-462.963 4032.12,-423.611C4036.17,-384.259 4050.06,-346.354 4073.78,-309.896C4097.51,-273.437 4130.78,-244.502 4173.61,-223.09C4216.43,-201.678 4262.44,-190.972 4311.63,-190.972C4360.82,-190.972 4403.93,-199.942 4440.97,-217.882C4478.01,-235.822 4509.26,-260.995 4534.72,-293.403C4560.18,-325.81 4577.83,-361.4 4587.67,-400.173C4597.51,-438.946 4602.43,-505.208 4602.43,-598.958L4602.43,-1350.69L4725.69,-1350.69L4725.69,-598.958C4725.69,-472.801 4712.96,-376.157 4687.5,-309.028C4662.03,-241.898 4617.19,-185.764 4552.95,-140.625C4488.71,-95.486 4413.19,-72.917 4326.39,-72.917C4256.94,-72.917 4194.44,-84.201 4138.89,-106.771C4083.33,-129.34 4037.03,-160.88 4000,-201.389C3962.96,-241.898 3937.21,-287.037 3922.74,-336.805C3908.27,-386.574 3901.04,-473.958 3901.04,-598.958L3901.04,-1350.69Z" style="fill:rgb(202,208,217);fill-rule:nonzero;"/>
        <path d="M5034.72,-1350.69L5750,-1350.69L5750,-1227.43L5159.72,-1227.43L5159.72,-838.541L5744.79,-838.541L5744.79,-717.013L5159.72,-717.013L5159.72,-227.43L5744.79,-227.43L5744.79,-104.167L5034.72,-104.167L5034.72,-1350.69Z" style="fill:rgb(202,208,217);fill-rule:nonzero;"/>
        <path d="M5963.54,-1350.69L6090.27,-1350.69L6090.27,-223.958L6569.44,-223.958L6569.44,-104.167L5963.54,-104.167L5963.54,-1350.69Z" style="fill:rgb(202,208,217);fill-rule:nonzero;"/>
        <path d="M6767.36,-1350.69L7482.63,-1350.69L7482.63,-1227.43L6892.36,-1227.43L6892.36,-838.541L7477.43,-838.541L7477.43,-717.013L6892.36,-717.013L6892.36,-227.43L7477.43,-227.43L7477.43,-104.167L6767.36,-104.167L6767.36,-1350.69Z" style="fill:rgb(202,208,217);fill-rule:nonzero;"/>
    </g>
    <defs>
        <linearGradient id="_Linear1" x1="0" y1="0" x2="1" y2="0" gradientUnits="userSpaceOnUse" gradientTransform="matrix(1996.29,3149.23,-3149.23,1996.29,2991.38,3425.57)"><stop offset="0" style="stop-color:rgb(242,94,13);stop-opacity:1"/><stop offset="0.56" style="stop-color:rgb(175,37,174);stop-opacity:1"/><stop offset="1" style="stop-color:rgb(147,13,242);stop-opacity:1"/></linearGradient>
    </defs>
</svg>
