<?xml version="1.0" encoding="UTF-8" standalone="no"?>
<!DOCTYPE svg PUBLIC "-//W3C//DTD SVG 1.1//EN" "http://www.w3.org/Graphics/SVG/1.1/DTD/svg11.dtd">
<svg width="100%" height="100%" viewBox="0 0 6667 1723" version="1.1" xmlns="http://www.w3.org/2000/svg" xmlns:xlink="http://www.w3.org/1999/xlink" xml:space="preserve" xmlns:serif="http://www.serif.com/" style="fill-rule:evenodd;clip-rule:evenodd;stroke-linejoin:round;stroke-miterlimit:2;">
    <g transform="matrix(7.66951,0,0,7.66951,-440.641,-3057.79)">
        <g>
            <g transform="matrix(1.33333,0,0,1.33333,0,4e-06)">
                <path d="M43.742,325.293L69.164,325.293L69.164,417.891L116.227,417.891L116.227,441.352L43.742,441.352L43.742,325.293Z" style="fill:rgb(34,34,34);fill-rule:nonzero;"/>
            </g>
            <g transform="matrix(1.33333,0,0,1.33333,0,4e-06)">
                <path d="M127.465,362.66L151.887,362.66L151.887,441.309L127.465,441.309L127.465,362.66ZM139.676,323.563C140.605,323.563 141.527,323.652 142.438,323.832C143.352,324.016 144.238,324.285 145.098,324.641C145.957,324.996 146.773,325.434 147.547,325.949C148.32,326.465 149.035,327.055 149.691,327.711C150.348,328.371 150.938,329.086 151.453,329.859C151.969,330.633 152.406,331.449 152.762,332.309C153.117,333.168 153.387,334.055 153.566,334.965C153.75,335.879 153.84,336.801 153.84,337.73C153.84,338.66 153.75,339.582 153.566,340.492C153.387,341.406 153.117,342.293 152.762,343.152C152.406,344.012 151.969,344.828 151.453,345.598C150.934,346.371 150.348,347.09 149.688,347.746C149.031,348.402 148.316,348.992 147.543,349.508C146.77,350.023 145.953,350.461 145.094,350.816C144.234,351.172 143.348,351.441 142.438,351.621C141.523,351.805 140.602,351.895 139.672,351.895C138.742,351.895 137.82,351.805 136.906,351.621C135.996,351.441 135.109,351.172 134.25,350.816C133.391,350.461 132.574,350.023 131.801,349.508C131.027,348.988 130.313,348.402 129.656,347.746C128.996,347.086 128.41,346.371 127.895,345.598C127.375,344.824 126.941,344.008 126.582,343.148C126.227,342.289 125.961,341.402 125.777,340.492C125.598,339.578 125.504,338.656 125.504,337.727C125.504,336.797 125.598,335.875 125.777,334.965C125.961,334.051 126.227,333.164 126.586,332.305C126.941,331.445 127.375,330.629 127.895,329.855C128.41,329.082 129,328.367 129.656,327.711C130.313,327.051 131.031,326.465 131.805,325.945C132.578,325.43 133.395,324.992 134.254,324.637C135.113,324.281 136,324.016 136.91,323.832C137.824,323.652 138.746,323.559 139.676,323.563" style="fill:rgb(34,34,34);fill-rule:nonzero;"/>
            </g>
            <g transform="matrix(1.33333,0,0,1.33333,0,4e-06)">
                <path d="M254.043,325.273L278.465,325.273L278.465,394.637L306.145,362.625L336.086,362.625L304.031,399.035L335.41,441.34L304.719,441.34L278.793,402.465L278.473,402.465L278.473,441.336L254.051,441.336L254.043,325.273Z" style="fill:rgb(34,34,34);fill-rule:nonzero;"/>
            </g>
            <g transform="matrix(1.33333,0,0,1.33333,0,4e-06)">
                <path d="M165.426,362.668L188.879,362.668L188.879,373.418L189.215,373.418C189.797,372.418 190.445,371.461 191.156,370.551C191.867,369.641 192.637,368.781 193.465,367.973C194.293,367.168 195.172,366.418 196.102,365.73C197.031,365.043 198.004,364.422 199.016,363.863C200.031,363.309 201.078,362.82 202.156,362.406C203.234,361.988 204.336,361.648 205.465,361.383C206.59,361.117 207.727,360.926 208.879,360.816C210.027,360.703 211.18,360.668 212.336,360.711C237.102,360.711 241.66,377.004 241.66,398.172L241.66,441.305L217.238,441.305L217.238,403.066C217.238,393.938 217.07,382.207 204.52,382.207C191.824,382.207 189.867,392.145 189.867,402.402L189.867,441.293L165.445,441.293L165.426,362.668Z" style="fill:rgb(34,34,34);fill-rule:nonzero;"/>
            </g>
            <g transform="matrix(1.33333,0,0,1.33333,0,4e-06)">
                <path d="M387.516,392.836C387.527,392.344 387.516,391.848 387.477,391.355C387.438,390.863 387.375,390.375 387.285,389.887C387.199,389.402 387.086,388.922 386.949,388.445C386.813,387.973 386.652,387.504 386.469,387.047C386.285,386.586 386.078,386.137 385.852,385.699C385.621,385.262 385.371,384.836 385.098,384.426C384.824,384.012 384.535,383.613 384.223,383.23C383.91,382.848 383.578,382.484 383.227,382.133C382.879,381.785 382.512,381.453 382.129,381.141C381.746,380.828 381.348,380.535 380.934,380.266C380.523,379.992 380.098,379.742 379.66,379.512C379.223,379.285 378.773,379.078 378.313,378.895C377.855,378.711 377.387,378.551 376.914,378.414C376.438,378.281 375.957,378.168 375.473,378.078C374.984,377.992 374.496,377.93 374.004,377.891C373.508,377.855 373.016,377.84 372.523,377.852C371.465,377.785 370.414,377.824 369.363,377.965C368.313,378.102 367.289,378.344 366.285,378.684C365.281,379.02 364.32,379.453 363.402,379.98C362.484,380.508 361.625,381.117 360.828,381.813C360.027,382.508 359.301,383.27 358.652,384.105C358,384.941 357.438,385.832 356.961,386.777C356.484,387.723 356.102,388.703 355.816,389.723C355.531,390.742 355.348,391.781 355.266,392.836L387.516,392.836ZM408.203,427.688C406.176,430.148 403.898,432.355 401.379,434.313C398.859,436.266 396.156,437.918 393.266,439.273C390.379,440.625 387.379,441.645 384.262,442.332C381.148,443.016 377.996,443.352 374.809,443.336C350.387,443.336 330.832,427.035 330.832,401.789C330.832,376.547 350.383,360.254 374.809,360.254C397.633,360.254 411.949,376.535 411.949,401.789L411.949,409.449L355.266,409.449C355.441,410.523 355.711,411.578 356.074,412.605C356.438,413.637 356.891,414.621 357.43,415.57C357.973,416.52 358.594,417.41 359.293,418.246C359.996,419.082 360.766,419.848 361.605,420.547C362.441,421.242 363.336,421.859 364.285,422.398C365.234,422.938 366.227,423.383 367.254,423.742C368.285,424.105 369.34,424.367 370.418,424.539C371.496,424.711 372.578,424.785 373.668,424.762C375.406,424.75 377.117,424.523 378.801,424.086C380.48,423.648 382.082,423.008 383.605,422.168C385.125,421.328 386.523,420.316 387.789,419.129C389.059,417.938 390.16,416.613 391.098,415.148L408.203,427.688Z" style="fill:rgb(34,34,34);fill-rule:nonzero;"/>
            </g>
            <g transform="matrix(1.33333,0,0,1.33333,0,4e-06)">
                <path d="M462.852,381.672C450.641,381.672 443.313,389.824 443.313,401.703C443.313,413.586 450.637,421.746 462.852,421.746C475.066,421.746 482.406,413.605 482.406,401.703C482.406,389.805 475.078,381.672 462.852,381.672M504.891,441.293L482.406,441.293L482.406,430.863L482.074,430.863C480.664,432.758 479.055,434.473 477.25,435.996C475.445,437.523 473.488,438.82 471.383,439.895C469.277,440.969 467.078,441.789 464.781,442.355C462.488,442.922 460.156,443.219 457.793,443.246C434.328,443.246 418.871,426.313 418.871,402.363C418.871,380.367 432.551,360.172 455.035,360.172C465.145,360.172 474.586,362.938 480.121,370.602L480.441,370.602L480.441,325.266L504.887,325.266L504.891,441.293Z" style="fill:rgb(34,34,34);fill-rule:nonzero;"/>
            </g>
            <g transform="matrix(1.33333,0,0,1.33333,0,4e-06)">
                <path d="M669.758,441.34L645.336,441.34L645.336,403.094C645.336,393.973 645.172,382.234 632.633,382.234C619.914,382.234 617.969,392.168 617.969,402.43L617.969,441.336L593.547,441.336L593.547,362.688L616.992,362.688L616.992,373.438L617.32,373.438C617.906,372.438 618.551,371.484 619.266,370.574C619.977,369.66 620.75,368.805 621.578,367.996C622.406,367.191 623.285,366.441 624.215,365.754C625.145,365.066 626.117,364.445 627.129,363.887C628.145,363.332 629.191,362.844 630.27,362.43C631.352,362.016 632.453,361.672 633.578,361.406C634.703,361.141 635.84,360.949 636.992,360.836C638.145,360.723 639.297,360.688 640.453,360.73C665.203,360.73 669.77,377.012 669.77,398.195L669.758,441.34ZM565.992,351.938C565.063,351.938 564.141,351.848 563.227,351.668C562.313,351.484 561.43,351.215 560.566,350.859C559.707,350.504 558.891,350.066 558.117,349.551C557.344,349.035 556.629,348.445 555.969,347.789C555.313,347.133 554.723,346.414 554.207,345.641C553.691,344.867 553.254,344.051 552.898,343.191C552.539,342.332 552.273,341.445 552.09,340.531C551.906,339.621 551.816,338.699 551.816,337.77C551.816,336.836 551.906,335.918 552.09,335.004C552.27,334.09 552.539,333.203 552.895,332.344C553.25,331.484 553.688,330.668 554.203,329.895C554.723,329.121 555.309,328.406 555.965,327.746C556.625,327.09 557.34,326.5 558.113,325.984C558.887,325.465 559.703,325.031 560.563,324.672C561.422,324.316 562.309,324.047 563.223,323.867C564.133,323.684 565.055,323.594 565.988,323.594C566.918,323.594 567.84,323.684 568.75,323.867C569.664,324.047 570.551,324.316 571.41,324.672C572.27,325.027 573.086,325.465 573.859,325.98C574.633,326.496 575.352,327.086 576.008,327.742C576.668,328.402 577.254,329.117 577.77,329.891C578.289,330.664 578.727,331.48 579.082,332.34C579.438,333.199 579.707,334.086 579.887,335C580.07,335.91 580.16,336.832 580.16,337.762C580.16,338.695 580.07,339.617 579.891,340.527C579.707,341.441 579.441,342.328 579.082,343.188C578.727,344.047 578.293,344.863 577.773,345.637C577.258,346.41 576.672,347.129 576.012,347.785C575.355,348.441 574.641,349.031 573.863,349.547C573.09,350.066 572.273,350.5 571.414,350.859C570.555,351.215 569.668,351.484 568.758,351.664C567.844,351.848 566.922,351.938 565.992,351.938M578.203,441.34L553.754,441.34L553.754,362.688L578.203,362.688L578.203,441.34ZM681.934,300.914L541.484,300.914C540.695,300.906 539.91,300.973 539.137,301.117C538.359,301.266 537.605,301.484 536.875,301.777C536.141,302.07 535.445,302.434 534.781,302.863C534.121,303.293 533.508,303.785 532.945,304.336C532.379,304.891 531.875,305.488 531.426,306.141C530.98,306.793 530.602,307.48 530.293,308.207C529.98,308.93 529.742,309.68 529.582,310.453C529.418,311.227 529.332,312.004 529.32,312.793L529.32,453.828C529.332,454.617 529.418,455.398 529.578,456.172C529.742,456.941 529.98,457.691 530.289,458.418C530.602,459.145 530.98,459.832 531.426,460.484C531.871,461.137 532.379,461.738 532.941,462.289C533.508,462.844 534.121,463.332 534.781,463.766C535.441,464.195 536.141,464.559 536.871,464.855C537.605,465.148 538.359,465.367 539.137,465.512C539.91,465.66 540.695,465.727 541.484,465.719L681.934,465.719C682.723,465.73 683.508,465.664 684.285,465.52C685.066,465.375 685.82,465.152 686.555,464.859C687.289,464.566 687.988,464.207 688.652,463.773C689.316,463.344 689.934,462.852 690.5,462.301C691.066,461.746 691.574,461.145 692.023,460.492C692.469,459.84 692.852,459.152 693.164,458.426C693.477,457.699 693.715,456.949 693.879,456.176C694.043,455.398 694.133,454.617 694.145,453.828L694.145,312.785C694.133,311.992 694.043,311.211 693.879,310.438C693.715,309.664 693.477,308.914 693.16,308.188C692.848,307.461 692.469,306.773 692.02,306.121C691.57,305.469 691.063,304.867 690.496,304.316C689.93,303.766 689.316,303.273 688.652,302.844C687.988,302.414 687.289,302.051 686.555,301.762C685.82,301.469 685.063,301.25 684.285,301.105C683.508,300.961 682.723,300.895 681.934,300.906" style="fill:rgb(34,34,34);fill-rule:nonzero;"/>
            </g>
        </g>
    </g>
</svg>
